REM DIRINDEX 1\2\4\18,1\2\4\19,1\2\5\20,1\2\5\21,1\2\6\22,1\2\6\23,1\2\7\24,1\2\8\25,1\2\9\26,1\2\10\27,1\2\10\28,1\3\11\29,1\3\11\30,1\3\11\31,1\3\11\32,1\3\12\33,1\3\12\34,1\3\12\35,1\3\12\36,1\3\13\37,1\3\13\38,1\3\13\39,1\3\13\40,1\3\14\41,1\3\14\42,1\3\15\43,1\3\15\44,1\3\16\45,1\3\16\46,1\3\17\47,1\3\17\48,1\3\17\49,1\3\17\50
REM DIRNAME cjc135,folder01,folder02,folder03,folder04,folder05,folder06,folder07,folder08,folder09,folder10,folder11,folder12,folder13,folder14,folder15,folder16,folder17,folder18,folder19,folder20,folder21,folder22,folder23,folder24,folder25,folder26,folder27,folder28,folder29,folder30,folder31,folder32,folder33,folder34,folder35,folder36,folder37,folder38,folder39,folder40,folder41,folder42,folder43,folder44,folder45,folder46,folder47,folder48,folder49
TITLE ""
FILE "16.mp3" MP3
  TRACK 01 AUDIO
    TITLE "0:"
    INDEX 01 00:00:00
  TRACK 02 AUDIO
    TITLE "27:cjc135_2354"
    INDEX 01 00:00:13
  TRACK 03 AUDIO
    TITLE "0:"
    INDEX 01 00:01:42
  TRACK 04 AUDIO
    TITLE "28:cjc135_2355"
    INDEX 01 00:01:69
  TRACK 05 AUDIO
    TITLE "0:"
    INDEX 01 00:04:21
  TRACK 06 AUDIO
    TITLE "27:cjc135_2356"
    INDEX 01 00:05:22
  TRACK 07 AUDIO
    TITLE "0:"
    INDEX 01 00:06:51
  TRACK 08 AUDIO
    TITLE "28:cjc135_2357"
    INDEX 01 00:07:02
  TRACK 09 AUDIO
    TITLE "0:"
    INDEX 01 00:08:73
  TRACK 10 AUDIO
    TITLE "27:cjc135_2358"
    INDEX 01 00:10:00
  TRACK 11 AUDIO
    TITLE "0:"
    INDEX 01 00:11:46
  TRACK 12 AUDIO
    TITLE "28:cjc135_2359"
    INDEX 01 00:11:74
  TRACK 13 AUDIO
    TITLE "0:"
    INDEX 01 00:14:00
  TRACK 14 AUDIO
    TITLE "27:cjc135_2360"
    INDEX 01 00:14:74
  TRACK 15 AUDIO
    TITLE "0:"
    INDEX 01 00:16:24
  TRACK 16 AUDIO
    TITLE "28:cjc135_2361"
    INDEX 01 00:16:49
  TRACK 17 AUDIO
    TITLE "0:"
    INDEX 01 00:19:48
  TRACK 18 AUDIO
    TITLE "27:cjc135_2362"
    INDEX 01 00:20:49
  TRACK 19 AUDIO
    TITLE "0:"
    INDEX 01 00:23:04
  TRACK 20 AUDIO
    TITLE "28:cjc135_2363"
    INDEX 01 00:23:28
  TRACK 21 AUDIO
    TITLE "0:"
    INDEX 01 00:26:26
  TRACK 22 AUDIO
    TITLE "27:cjc135_2364"
    INDEX 01 00:27:24
  TRACK 23 AUDIO
    TITLE "0:"
    INDEX 01 00:28:45
  TRACK 24 AUDIO
    TITLE "28:cjc135_2365"
    INDEX 01 00:28:70
  TRACK 25 AUDIO
    TITLE "0:"
    INDEX 01 00:31:12
  TRACK 26 AUDIO
    TITLE "27:cjc135_2366"
    INDEX 01 00:32:09
  TRACK 27 AUDIO
    TITLE "0:"
    INDEX 01 00:33:28
  TRACK 28 AUDIO
    TITLE "28:cjc135_2367"
    INDEX 01 00:33:52
  TRACK 29 AUDIO
    TITLE "0:"
    INDEX 01 00:35:35
  TRACK 30 AUDIO
    TITLE "27:cjc135_2368"
    INDEX 01 00:36:36
  TRACK 31 AUDIO
    TITLE "0:"
    INDEX 01 00:38:00
  TRACK 32 AUDIO
    TITLE "28:cjc135_2369"
    INDEX 01 00:38:26
  TRACK 33 AUDIO
    TITLE "0:"
    INDEX 01 00:41:38
  TRACK 34 AUDIO
    TITLE "27:cjc135_2370"
    INDEX 01 00:42:37
  TRACK 35 AUDIO
    TITLE "0:"
    INDEX 01 00:44:16
  TRACK 36 AUDIO
    TITLE "28:cjc135_2371"
    INDEX 01 00:44:42
  TRACK 37 AUDIO
    TITLE "0:"
    INDEX 01 00:48:30
  TRACK 38 AUDIO
    TITLE "27:cjc135_2372"
    INDEX 01 00:49:27
  TRACK 39 AUDIO
    TITLE "0:"
    INDEX 01 00:50:44
  TRACK 40 AUDIO
    TITLE "28:cjc135_2373"
    INDEX 01 00:50:68
  TRACK 41 AUDIO
    TITLE "0:"
    INDEX 01 00:53:51
  TRACK 42 AUDIO
    TITLE "27:cjc135_2374"
    INDEX 01 00:54:50
  TRACK 43 AUDIO
    TITLE "0:"
    INDEX 01 00:56:12
  TRACK 44 AUDIO
    TITLE "28:cjc135_2375"
    INDEX 01 00:56:35
  TRACK 45 AUDIO
    TITLE "0:"
    INDEX 01 00:58:26
  TRACK 46 AUDIO
    TITLE "27:cjc135_2376"
    INDEX 01 00:59:24
  TRACK 47 AUDIO
    TITLE "0:"
    INDEX 01 01:00:60
  TRACK 48 AUDIO
    TITLE "28:cjc135_2377"
    INDEX 01 01:01:13
  TRACK 49 AUDIO
    TITLE "0:"
    INDEX 01 01:03:37
  TRACK 50 AUDIO
    TITLE "27:cjc135_2378"
    INDEX 01 01:04:37
  TRACK 51 AUDIO
    TITLE "0:"
    INDEX 01 01:06:06
  TRACK 52 AUDIO
    TITLE "28:cjc135_2379"
    INDEX 01 01:06:30
  TRACK 53 AUDIO
    TITLE "0:"
    INDEX 01 01:08:56
  TRACK 54 AUDIO
    TITLE "27:cjc135_2380"
    INDEX 01 01:09:57
  TRACK 55 AUDIO
    TITLE "0:"
    INDEX 01 01:11:07
  TRACK 56 AUDIO
    TITLE "28:cjc135_2381"
    INDEX 01 01:11:33
  TRACK 57 AUDIO
    TITLE "0:"
    INDEX 01 01:13:36
  TRACK 58 AUDIO
    TITLE "27:cjc135_2382"
    INDEX 01 01:14:35
  TRACK 59 AUDIO
    TITLE "0:"
    INDEX 01 01:15:50
  TRACK 60 AUDIO
    TITLE "28:cjc135_2383"
    INDEX 01 01:15:74
  TRACK 61 AUDIO
    TITLE "0:"
    INDEX 01 01:18:17
  TRACK 62 AUDIO
    TITLE "27:cjc135_2384"
    INDEX 01 01:19:21
  TRACK 63 AUDIO
    TITLE "0:"
    INDEX 01 01:20:30
  TRACK 64 AUDIO
    TITLE "28:cjc135_2385"
    INDEX 01 01:20:63
  TRACK 65 AUDIO
    TITLE "0:"
    INDEX 01 01:22:42
  TRACK 66 AUDIO
    TITLE "27:cjc135_2386"
    INDEX 01 01:23:40
  TRACK 67 AUDIO
    TITLE "0:"
    INDEX 01 01:24:47
  TRACK 68 AUDIO
    TITLE "28:cjc135_2387"
    INDEX 01 01:25:02
  TRACK 69 AUDIO
    TITLE "0:"
    INDEX 01 01:26:60
  TRACK 70 AUDIO
    TITLE "27:cjc135_2388"
    INDEX 01 01:27:57
  TRACK 71 AUDIO
    TITLE "0:"
    INDEX 01 01:28:65
  TRACK 72 AUDIO
    TITLE "28:cjc135_2389"
    INDEX 01 01:29:17
  TRACK 73 AUDIO
    TITLE "0:"
    INDEX 01 01:31:18
  TRACK 74 AUDIO
    TITLE "27:cjc135_2390"
    INDEX 01 01:32:23
  TRACK 75 AUDIO
    TITLE "0:"
    INDEX 01 01:33:48
  TRACK 76 AUDIO
    TITLE "28:cjc135_2391"
    INDEX 01 01:34:03
  TRACK 77 AUDIO
    TITLE "0:"
    INDEX 01 01:35:57
  TRACK 78 AUDIO
    TITLE "27:cjc135_2392"
    INDEX 01 01:36:60
  TRACK 79 AUDIO
    TITLE "0:"
    INDEX 01 01:37:69
  TRACK 80 AUDIO
    TITLE "28:cjc135_2393"
    INDEX 01 01:38:20
  TRACK 81 AUDIO
    TITLE "0:"
    INDEX 01 01:39:72
  TRACK 82 AUDIO
    TITLE "27:cjc135_2394"
    INDEX 01 01:40:72
  TRACK 83 AUDIO
    TITLE "0:"
    INDEX 01 01:42:53
  TRACK 84 AUDIO
    TITLE "28:cjc135_2395"
    INDEX 01 01:43:05
  TRACK 85 AUDIO
    TITLE "0:"
    INDEX 01 01:45:08
  TRACK 86 AUDIO
    TITLE "27:cjc135_2396"
    INDEX 01 01:46:14
  TRACK 87 AUDIO
    TITLE "0:"
    INDEX 01 01:47:27
  TRACK 88 AUDIO
    TITLE "28:cjc135_2397"
    INDEX 01 01:47:54
  TRACK 89 AUDIO
    TITLE "0:"
    INDEX 01 01:49:24
  TRACK 90 AUDIO
    TITLE "27:cjc135_2398"
    INDEX 01 01:50:25
  TRACK 91 AUDIO
    TITLE "0:"
    INDEX 01 01:51:44
  TRACK 92 AUDIO
    TITLE "28:cjc135_2399"
    INDEX 01 01:51:72
  TRACK 93 AUDIO
    TITLE "0:"
    INDEX 01 01:54:15
  TRACK 94 AUDIO
    TITLE "27:cjc135_2400"
    INDEX 01 01:55:18
  TRACK 95 AUDIO
    TITLE "0:"
    INDEX 01 01:56:45
  TRACK 96 AUDIO
    TITLE "28:cjc135_2401"
    INDEX 01 01:56:73
  TRACK 97 AUDIO
    TITLE "0:"
    INDEX 01 02:00:18
  TRACK 98 AUDIO
    TITLE "27:cjc135_2402"
    INDEX 01 02:01:17
  TRACK 99 AUDIO
    TITLE "0:"
    INDEX 01 02:02:50
  TRACK 100 AUDIO
    TITLE "28:cjc135_2403"
    INDEX 01 02:03:02
  TRACK 101 AUDIO
    TITLE "0:"
    INDEX 01 02:05:21
  TRACK 102 AUDIO
    TITLE "27:cjc135_2404"
    INDEX 01 02:06:20
  TRACK 103 AUDIO
    TITLE "0:"
    INDEX 01 02:07:57
  TRACK 104 AUDIO
    TITLE "28:cjc135_2405"
    INDEX 01 02:08:07
  TRACK 105 AUDIO
    TITLE "0:"
    INDEX 01 02:10:12
  TRACK 106 AUDIO
    TITLE "27:cjc135_2406"
    INDEX 01 02:11:15
  TRACK 107 AUDIO
    TITLE "0:"
    INDEX 01 02:12:38
  TRACK 108 AUDIO
    TITLE "28:cjc135_2407"
    INDEX 01 02:12:62
  TRACK 109 AUDIO
    TITLE "0:"
    INDEX 01 02:14:53
  TRACK 110 AUDIO
    TITLE "27:cjc135_2408"
    INDEX 01 02:15:54
  TRACK 111 AUDIO
    TITLE "0:"
    INDEX 01 02:16:66
  TRACK 112 AUDIO
    TITLE "28:cjc135_2409"
    INDEX 01 02:17:14
  TRACK 113 AUDIO
    TITLE "0:"
    INDEX 01 02:19:03
  TRACK 114 AUDIO
    TITLE "27:cjc135_2410"
    INDEX 01 02:20:03
  TRACK 115 AUDIO
    TITLE "0:"
    INDEX 01 02:21:35
  TRACK 116 AUDIO
    TITLE "28:cjc135_2411"
    INDEX 01 02:21:61
  TRACK 117 AUDIO
    TITLE "0:"
    INDEX 01 02:24:42
  TRACK 118 AUDIO
    TITLE "27:cjc135_2412"
    INDEX 01 02:25:43
  TRACK 119 AUDIO
    TITLE "0:"
    INDEX 01 02:26:66
  TRACK 120 AUDIO
    TITLE "28:cjc135_2413"
    INDEX 01 02:27:20
  TRACK 121 AUDIO
    TITLE "0:"
    INDEX 01 02:29:29
  TRACK 122 AUDIO
    TITLE "27:cjc135_2414"
    INDEX 01 02:30:30
  TRACK 123 AUDIO
    TITLE "0:"
    INDEX 01 02:31:48
  TRACK 124 AUDIO
    TITLE "28:cjc135_2415"
    INDEX 01 02:32:04
  TRACK 125 AUDIO
    TITLE "0:"
    INDEX 01 02:33:74
  TRACK 126 AUDIO
    TITLE "27:cjc135_2416"
    INDEX 01 02:35:02
  TRACK 127 AUDIO
    TITLE "0:"
    INDEX 01 02:36:15
  TRACK 128 AUDIO
    TITLE "28:cjc135_2417"
    INDEX 01 02:36:39
  TRACK 129 AUDIO
    TITLE "0:"
    INDEX 01 02:38:59
  TRACK 130 AUDIO
    TITLE "27:cjc135_2418"
    INDEX 01 02:39:59
  TRACK 131 AUDIO
    TITLE "0:"
    INDEX 01 02:41:09
  TRACK 132 AUDIO
    TITLE "28:cjc135_2419"
    INDEX 01 02:41:32
  TRACK 133 AUDIO
    TITLE "0:"
    INDEX 01 02:43:57
  TRACK 134 AUDIO
    TITLE "27:cjc135_2420"
    INDEX 01 02:44:58
  TRACK 135 AUDIO
    TITLE "0:"
    INDEX 01 02:46:00
  TRACK 136 AUDIO
    TITLE "28:cjc135_2421"
    INDEX 01 02:46:26
  TRACK 137 AUDIO
    TITLE "0:"
    INDEX 01 02:49:08
  TRACK 138 AUDIO
    TITLE "27:cjc135_2422"
    INDEX 01 02:50:08
  TRACK 139 AUDIO
    TITLE "0:"
    INDEX 01 02:51:15
  TRACK 140 AUDIO
    TITLE "28:cjc135_2423"
    INDEX 01 02:51:40
  TRACK 141 AUDIO
    TITLE "0:"
    INDEX 01 02:53:59
  TRACK 142 AUDIO
    TITLE "27:cjc135_2424"
    INDEX 01 02:54:62
  TRACK 143 AUDIO
    TITLE "0:"
    INDEX 01 02:56:06
  TRACK 144 AUDIO
    TITLE "28:cjc135_2425"
    INDEX 01 02:56:32
  TRACK 145 AUDIO
    TITLE "0:"
    INDEX 01 02:58:72
  TRACK 146 AUDIO
    TITLE "27:cjc135_2426"
    INDEX 01 02:59:71
  TRACK 147 AUDIO
    TITLE "0:"
    INDEX 01 03:01:09
  TRACK 148 AUDIO
    TITLE "28:cjc135_2427"
    INDEX 01 03:01:35
  TRACK 149 AUDIO
    TITLE "0:"
    INDEX 01 03:04:35
  TRACK 150 AUDIO
    TITLE "27:cjc135_2428"
    INDEX 01 03:05:37
  TRACK 151 AUDIO
    TITLE "0:"
    INDEX 01 03:06:56
  TRACK 152 AUDIO
    TITLE "28:cjc135_2429"
    INDEX 01 03:07:10
  TRACK 153 AUDIO
    TITLE "0:"
    INDEX 01 03:09:09
  TRACK 154 AUDIO
    TITLE "27:cjc135_2430"
    INDEX 01 03:10:10
  TRACK 155 AUDIO
    TITLE "0:"
    INDEX 01 03:11:39
  TRACK 156 AUDIO
    TITLE "28:cjc135_2431"
    INDEX 01 03:11:65
  TRACK 157 AUDIO
    TITLE "0:"
    INDEX 01 03:14:57
  TRACK 158 AUDIO
    TITLE "27:cjc135_2432"
    INDEX 01 03:15:57
  TRACK 159 AUDIO
    TITLE "0:"
    INDEX 01 03:17:10
  TRACK 160 AUDIO
    TITLE "28:cjc135_2433"
    INDEX 01 03:17:34
  TRACK 161 AUDIO
    TITLE "0:"
    INDEX 01 03:19:17
  TRACK 162 AUDIO
    TITLE "27:cjc135_2434"
    INDEX 01 03:20:17
  TRACK 163 AUDIO
    TITLE "0:"
    INDEX 01 03:21:36
  TRACK 164 AUDIO
    TITLE "28:cjc135_2435"
    INDEX 01 03:21:59
  TRACK 165 AUDIO
    TITLE "0:"
    INDEX 01 03:24:07
  TRACK 166 AUDIO
    TITLE "27:cjc135_2436"
    INDEX 01 03:25:08
  TRACK 167 AUDIO
    TITLE "0:"
    INDEX 01 03:26:29
  TRACK 168 AUDIO
    TITLE "28:cjc135_2437"
    INDEX 01 03:26:54
  TRACK 169 AUDIO
    TITLE "0:"
    INDEX 01 03:29:53
  TRACK 170 AUDIO
    TITLE "27:cjc135_2438"
    INDEX 01 03:30:54
  TRACK 171 AUDIO
    TITLE "0:"
    INDEX 01 03:32:06
  TRACK 172 AUDIO
    TITLE "28:cjc135_2439"
    INDEX 01 03:32:32
  TRACK 173 AUDIO
    TITLE "0:"
    INDEX 01 03:34:21
  TRACK 174 AUDIO
    TITLE "27:cjc135_2440"
    INDEX 01 03:35:20
  TRACK 175 AUDIO
    TITLE "0:"
    INDEX 01 03:36:53
  TRACK 176 AUDIO
    TITLE "28:cjc135_2441"
    INDEX 01 03:37:05
  TRACK 177 AUDIO
    TITLE "0:"
    INDEX 01 03:40:21
  TRACK 178 AUDIO
    TITLE "27:cjc135_2442"
    INDEX 01 03:41:23
  TRACK 179 AUDIO
    TITLE "0:"
    INDEX 01 03:42:52
  TRACK 180 AUDIO
    TITLE "28:cjc135_2443"
    INDEX 01 03:43:02
  TRACK 181 AUDIO
    TITLE "0:"
    INDEX 01 03:45:36
  TRACK 182 AUDIO
    TITLE "27:cjc135_2444"
    INDEX 01 03:46:36
  TRACK 183 AUDIO
    TITLE "0:"
    INDEX 01 03:47:51
  TRACK 184 AUDIO
    TITLE "28:cjc135_2445"
    INDEX 01 03:48:03
  TRACK 185 AUDIO
    TITLE "0:"
    INDEX 01 03:49:52
  TRACK 186 AUDIO
    TITLE "27:cjc135_2446"
    INDEX 01 03:50:53
  TRACK 187 AUDIO
    TITLE "0:"
    INDEX 01 03:52:24
  TRACK 188 AUDIO
    TITLE "28:cjc135_2447"
    INDEX 01 03:52:46
  TRACK 189 AUDIO
    TITLE "0:"
    INDEX 01 03:54:74
  TRACK 190 AUDIO
    TITLE "27:cjc135_2448"
    INDEX 01 03:55:74
  TRACK 191 AUDIO
    TITLE "0:"
    INDEX 01 03:58:00
  TRACK 192 AUDIO
    TITLE "28:cjc135_2449"
    INDEX 01 03:58:23
  TRACK 193 AUDIO
    TITLE "0:"
    INDEX 01 04:01:00
  TRACK 194 AUDIO
    TITLE "27:cjc135_2450"
    INDEX 01 04:02:05
  TRACK 195 AUDIO
    TITLE "0:"
    INDEX 01 04:03:26
  TRACK 196 AUDIO
    TITLE "28:cjc135_2451"
    INDEX 01 04:03:52
  TRACK 197 AUDIO
    TITLE "0:"
    INDEX 01 04:05:33
  TRACK 198 AUDIO
    TITLE "27:cjc135_2452"
    INDEX 01 04:06:34
  TRACK 199 AUDIO
    TITLE "0:"
    INDEX 01 04:07:65
  TRACK 200 AUDIO
    TITLE "28:cjc135_2453"
    INDEX 01 04:08:18
  TRACK 201 AUDIO
    TITLE "0:"
    INDEX 01 04:09:72
  TRACK 202 AUDIO
    TITLE "27:cjc135_2454"
    INDEX 01 04:10:71
  TRACK 203 AUDIO
    TITLE "0:"
    INDEX 01 04:12:12
  TRACK 204 AUDIO
    TITLE "28:cjc135_2455"
    INDEX 01 04:12:35
  TRACK 205 AUDIO
    TITLE "0:"
    INDEX 01 04:14:08
  TRACK 206 AUDIO
    TITLE "27:cjc135_2456"
    INDEX 01 04:15:10
  TRACK 207 AUDIO
    TITLE "0:"
    INDEX 01 04:16:56
  TRACK 208 AUDIO
    TITLE "28:cjc135_2457"
    INDEX 01 04:17:07
  TRACK 209 AUDIO
    TITLE "0:"
    INDEX 01 04:19:06
  TRACK 210 AUDIO
    TITLE "27:cjc135_2458"
    INDEX 01 04:20:05
  TRACK 211 AUDIO
    TITLE "0:"
    INDEX 01 04:21:36
  TRACK 212 AUDIO
    TITLE "28:cjc135_2459"
    INDEX 01 04:21:59
  TRACK 213 AUDIO
    TITLE "0:"
    INDEX 01 04:24:05
  TRACK 214 AUDIO
    TITLE "27:cjc135_2460"
    INDEX 01 04:25:08
  TRACK 215 AUDIO
    TITLE "0:"
    INDEX 01 04:26:29
  TRACK 216 AUDIO
    TITLE "28:cjc135_2461"
    INDEX 01 04:26:55
  TRACK 217 AUDIO
    TITLE "0:"
    INDEX 01 04:28:20
  TRACK 218 AUDIO
    TITLE "27:cjc135_2462"
    INDEX 01 04:29:20
  TRACK 219 AUDIO
    TITLE "0:"
    INDEX 01 04:30:39
  TRACK 220 AUDIO
    TITLE "28:cjc135_2463"
    INDEX 01 04:30:62
  TRACK 221 AUDIO
    TITLE "0:"
    INDEX 01 04:32:59
  TRACK 222 AUDIO
    TITLE "27:cjc135_2464"
    INDEX 01 04:33:59
  TRACK 223 AUDIO
    TITLE "0:"
    INDEX 01 04:34:72
  TRACK 224 AUDIO
    TITLE "28:cjc135_2465"
    INDEX 01 04:35:24
  TRACK 225 AUDIO
    TITLE "0:"
    INDEX 01 04:36:63
  TRACK 226 AUDIO
    TITLE "27:cjc135_2466"
    INDEX 01 04:37:64
  TRACK 227 AUDIO
    TITLE "0:"
    INDEX 01 04:39:18
  TRACK 228 AUDIO
    TITLE "28:cjc135_2467"
    INDEX 01 04:39:46
  TRACK 229 AUDIO
    TITLE "0:"
    INDEX 01 04:41:62
  TRACK 230 AUDIO
    TITLE "27:cjc135_2468"
    INDEX 01 04:42:62
  TRACK 231 AUDIO
    TITLE "0:"
    INDEX 01 04:44:00
  TRACK 232 AUDIO
    TITLE "28:cjc135_2469"
    INDEX 01 04:44:27
  TRACK 233 AUDIO
    TITLE "0:"
    INDEX 01 04:46:12
  TRACK 234 AUDIO
    TITLE "27:cjc135_2470"
    INDEX 01 04:47:10
  TRACK 235 AUDIO
    TITLE "0:"
    INDEX 01 04:48:21
  TRACK 236 AUDIO
    TITLE "28:cjc135_2471"
    INDEX 01 04:48:45
  TRACK 237 AUDIO
    TITLE "0:"
    INDEX 01 04:50:32
  TRACK 238 AUDIO
    TITLE "27:cjc135_2472"
    INDEX 01 04:51:33
  TRACK 239 AUDIO
    TITLE "0:"
    INDEX 01 04:54:35
  TRACK 240 AUDIO
    TITLE "28:cjc135_2473"
    INDEX 01 04:54:59
  TRACK 241 AUDIO
    TITLE "0:"
    INDEX 01 04:58:47
  TRACK 242 AUDIO
    TITLE "27:cjc135_2474"
    INDEX 01 04:59:50
  TRACK 243 AUDIO
    TITLE "0:"
    INDEX 01 05:01:12
  TRACK 244 AUDIO
    TITLE "28:cjc135_2475"
    INDEX 01 05:01:39
  TRACK 245 AUDIO
    TITLE "0:"
    INDEX 01 05:03:42
  TRACK 246 AUDIO
    TITLE "27:cjc135_2476"
    INDEX 01 05:04:44
  TRACK 247 AUDIO
    TITLE "0:"
    INDEX 01 05:06:29
  TRACK 248 AUDIO
    TITLE "28:cjc135_2477"
    INDEX 01 05:06:54
  TRACK 249 AUDIO
    TITLE "0:"
    INDEX 01 05:09:02
  TRACK 250 AUDIO
    TITLE "27:cjc135_2478"
    INDEX 01 05:09:74
  TRACK 251 AUDIO
    TITLE "0:"
    INDEX 01 05:11:20
  TRACK 252 AUDIO
    TITLE "28:cjc135_2479"
    INDEX 01 05:11:48
  TRACK 253 AUDIO
    TITLE "0:"
    INDEX 01 05:13:46
  TRACK 254 AUDIO
    TITLE "27:cjc135_2480"
    INDEX 01 05:14:44
  TRACK 255 AUDIO
    TITLE "0:"
    INDEX 01 05:16:21
  TRACK 256 AUDIO
    TITLE "28:cjc135_2481"
    INDEX 01 05:16:45
  TRACK 257 AUDIO
    TITLE "0:"
    INDEX 01 05:19:20
  TRACK 258 AUDIO
    TITLE "27:cjc135_2482"
    INDEX 01 05:20:17
  TRACK 259 AUDIO
    TITLE "0:"
    INDEX 01 05:21:36
  TRACK 260 AUDIO
    TITLE "28:cjc135_2483"
    INDEX 01 05:21:62
  TRACK 261 AUDIO
    TITLE "0:"
    INDEX 01 05:23:72
  TRACK 262 AUDIO
    TITLE "27:cjc135_2484"
    INDEX 01 05:24:72
  TRACK 263 AUDIO
    TITLE "0:"
    INDEX 01 05:26:31
  TRACK 264 AUDIO
    TITLE "28:cjc135_2485"
    INDEX 01 05:26:55
  TRACK 265 AUDIO
    TITLE "0:"
    INDEX 01 05:29:00
  TRACK 266 AUDIO
    TITLE "27:cjc135_2486"
    INDEX 01 05:30:00
  TRACK 267 AUDIO
    TITLE "0:"
    INDEX 01 05:31:27
  TRACK 268 AUDIO
    TITLE "28:cjc135_2487"
    INDEX 01 05:31:52
  TRACK 269 AUDIO
    TITLE "0:"
    INDEX 01 05:34:39
  TRACK 270 AUDIO
    TITLE "27:cjc135_2488"
    INDEX 01 05:35:40
  TRACK 271 AUDIO
    TITLE "0:"
    INDEX 01 05:36:69
  TRACK 272 AUDIO
    TITLE "28:cjc135_2489"
    INDEX 01 05:37:20
  TRACK 273 AUDIO
    TITLE "0:"
    INDEX 01 05:39:36
  TRACK 274 AUDIO
    TITLE "27:cjc135_2490"
    INDEX 01 05:40:37
  TRACK 275 AUDIO
    TITLE "0:"
    INDEX 01 05:41:55
  TRACK 276 AUDIO
    TITLE "28:cjc135_2491"
    INDEX 01 05:42:05
  TRACK 277 AUDIO
    TITLE "0:"
    INDEX 01 05:43:63
  TRACK 278 AUDIO
    TITLE "27:cjc135_2492"
    INDEX 01 05:44:65
  TRACK 279 AUDIO
    TITLE "0:"
    INDEX 01 05:46:03
  TRACK 280 AUDIO
    TITLE "28:cjc135_2493"
    INDEX 01 05:46:30
  TRACK 281 AUDIO
    TITLE "0:"
    INDEX 01 05:48:51
  TRACK 282 AUDIO
    TITLE "27:cjc135_2494"
    INDEX 01 05:49:50
  TRACK 283 AUDIO
    TITLE "0:"
    INDEX 01 05:50:52
  TRACK 284 AUDIO
    TITLE "28:cjc135_2495"
    INDEX 01 05:51:10
  TRACK 285 AUDIO
    TITLE "0:"
    INDEX 01 05:52:39
  TRACK 286 AUDIO
    TITLE "27:cjc135_2496"
    INDEX 01 05:53:36
  TRACK 287 AUDIO
    TITLE "0:"
    INDEX 01 05:54:51
  TRACK 288 AUDIO
    TITLE "28:cjc135_2497"
    INDEX 01 05:55:00
  TRACK 289 AUDIO
    TITLE "0:"
    INDEX 01 05:56:62
  TRACK 290 AUDIO
    TITLE "27:cjc135_2498"
    INDEX 01 05:57:71
  TRACK 291 AUDIO
    TITLE "0:"
    INDEX 01 05:59:17
  TRACK 292 AUDIO
    TITLE "28:cjc135_2499"
    INDEX 01 05:59:43
  TRACK 293 AUDIO
    TITLE "0:"
    INDEX 01 06:01:10
  TRACK 294 AUDIO
    TITLE "27:cjc135_2500"
    INDEX 01 06:02:10
  TRACK 295 AUDIO
    TITLE "0:"
    INDEX 01 06:03:21
  TRACK 296 AUDIO
    TITLE "28:cjc135_2501"
    INDEX 01 06:03:44
  TRACK 297 AUDIO
    TITLE "0:"
    INDEX 01 06:05:30
  TRACK 298 AUDIO
    TITLE "27:cjc135_2502"
    INDEX 01 06:06:29
  TRACK 299 AUDIO
    TITLE "0:"
    INDEX 01 06:07:48
  TRACK 300 AUDIO
    TITLE "28:cjc135_2503"
    INDEX 01 06:08:00
  TRACK 301 AUDIO
    TITLE "0:"
    INDEX 01 06:09:74
  TRACK 302 AUDIO
    TITLE "27:cjc135_2504"
    INDEX 01 06:10:74
  TRACK 303 AUDIO
    TITLE "0:"
    INDEX 01 06:12:14
  TRACK 304 AUDIO
    TITLE "28:cjc135_2505"
    INDEX 01 06:12:36
  TRACK 305 AUDIO
    TITLE "0:"
    INDEX 01 06:14:48
  TRACK 306 AUDIO
    TITLE "27:cjc135_2506"
    INDEX 01 06:15:48
  TRACK 307 AUDIO
    TITLE "0:"
    INDEX 01 06:16:59
  TRACK 308 AUDIO
    TITLE "28:cjc135_2507"
    INDEX 01 06:17:09
  TRACK 309 AUDIO
    TITLE "0:"
    INDEX 01 06:18:69
  TRACK 310 AUDIO
    TITLE "27:cjc135_2508"
    INDEX 01 06:19:69
  TRACK 311 AUDIO
    TITLE "0:"
    INDEX 01 06:21:03
  TRACK 312 AUDIO
    TITLE "28:cjc135_2509"
    INDEX 01 06:21:31
  TRACK 313 AUDIO
    TITLE "0:"
    INDEX 01 06:22:69
  TRACK 314 AUDIO
    TITLE "27:cjc135_2510"
    INDEX 01 06:23:73
  TRACK 315 AUDIO
    TITLE "0:"
    INDEX 01 06:25:21
  TRACK 316 AUDIO
    TITLE "28:cjc135_2511"
    INDEX 01 06:25:44
  TRACK 317 AUDIO
    TITLE "0:"
    INDEX 01 06:27:23
  TRACK 318 AUDIO
    TITLE "27:cjc135_2512"
    INDEX 01 06:28:25
  TRACK 319 AUDIO
    TITLE "0:"
    INDEX 01 06:29:50
  TRACK 320 AUDIO
    TITLE "28:cjc135_2513"
    INDEX 01 06:30:00
  TRACK 321 AUDIO
    TITLE "0:"
    INDEX 01 06:31:68
  TRACK 322 AUDIO
    TITLE "27:cjc135_2514"
    INDEX 01 06:32:70
  TRACK 323 AUDIO
    TITLE "0:"
    INDEX 01 06:34:51
  TRACK 324 AUDIO
    TITLE "28:cjc135_2515"
    INDEX 01 06:35:01
  TRACK 325 AUDIO
    TITLE "0:"
    INDEX 01 06:37:18
  TRACK 326 AUDIO
    TITLE "27:cjc135_2516"
    INDEX 01 06:38:19
  TRACK 327 AUDIO
    TITLE "0:"
    INDEX 01 06:39:72
  TRACK 328 AUDIO
    TITLE "28:cjc135_2517"
    INDEX 01 06:40:22
  TRACK 329 AUDIO
    TITLE "0:"
    INDEX 01 06:42:09
  TRACK 330 AUDIO
    TITLE "27:cjc135_2518"
    INDEX 01 06:43:09
  TRACK 331 AUDIO
    TITLE "0:"
    INDEX 01 06:44:32
  TRACK 332 AUDIO
    TITLE "28:cjc135_2519"
    INDEX 01 06:44:55
  TRACK 333 AUDIO
    TITLE "0:"
    INDEX 01 06:47:30
  TRACK 334 AUDIO
    TITLE "27:cjc135_2520"
    INDEX 01 06:48:29
  TRACK 335 AUDIO
    TITLE "0:"
    INDEX 01 06:49:74
  TRACK 336 AUDIO
    TITLE "28:cjc135_2521"
    INDEX 01 06:50:24
  TRACK 337 AUDIO
    TITLE "0:"
    INDEX 01 06:53:05
  TRACK 338 AUDIO
    TITLE "27:cjc135_2522"
    INDEX 01 06:54:06
  TRACK 339 AUDIO
    TITLE "0:"
    INDEX 01 06:55:35
  TRACK 340 AUDIO
    TITLE "28:cjc135_2523"
    INDEX 01 06:55:57
  TRACK 341 AUDIO
    TITLE "0:"
    INDEX 01 06:57:28
  TRACK 342 AUDIO
    TITLE "27:cjc135_2524"
    INDEX 01 06:58:28
  TRACK 343 AUDIO
    TITLE "0:"
    INDEX 01 06:59:51
  TRACK 344 AUDIO
    TITLE "28:cjc135_2525"
    INDEX 01 06:59:74
  TRACK 345 AUDIO
    TITLE "0:"
    INDEX 01 07:02:53
  TRACK 346 AUDIO
    TITLE "27:cjc135_2526"
    INDEX 01 07:03:54
  TRACK 347 AUDIO
    TITLE "0:"
    INDEX 01 07:04:72
  TRACK 348 AUDIO
    TITLE "28:cjc135_2527"
    INDEX 01 07:05:22
  TRACK 349 AUDIO
    TITLE "0:"
    INDEX 01 07:07:01
  TRACK 350 AUDIO
    TITLE "27:cjc135_2528"
    INDEX 01 07:08:01
  TRACK 351 AUDIO
    TITLE "0:"
    INDEX 01 07:09:14
  TRACK 352 AUDIO
    TITLE "28:cjc135_2529"
    INDEX 01 07:09:39
  TRACK 353 AUDIO
    TITLE "0:"
    INDEX 01 07:11:11
  TRACK 354 AUDIO
    TITLE "27:cjc135_2530"
    INDEX 01 07:12:12
  TRACK 355 AUDIO
    TITLE "0:"
    INDEX 01 07:13:33
  TRACK 356 AUDIO
    TITLE "28:cjc135_2531"
    INDEX 01 07:13:59
  TRACK 357 AUDIO
    TITLE "0:"
    INDEX 01 07:15:48
  TRACK 358 AUDIO
    TITLE "27:cjc135_2532"
    INDEX 01 07:16:49
  TRACK 359 AUDIO
    TITLE "0:"
    INDEX 01 07:17:66
  TRACK 360 AUDIO
    TITLE "28:cjc135_2533"
    INDEX 01 07:18:17
  TRACK 361 AUDIO
    TITLE "0:"
    INDEX 01 07:19:63
  TRACK 362 AUDIO
    TITLE "27:cjc135_2534"
    INDEX 01 07:20:65
  TRACK 363 AUDIO
    TITLE "0:"
    INDEX 01 07:22:11
  TRACK 364 AUDIO
    TITLE "28:cjc135_2535"
    INDEX 01 07:22:32
  TRACK 365 AUDIO
    TITLE "0:"
    INDEX 01 07:24:17
  TRACK 366 AUDIO
    TITLE "27:cjc135_2536"
    INDEX 01 07:25:19
  TRACK 367 AUDIO
    TITLE "0:"
    INDEX 01 07:27:24
  TRACK 368 AUDIO
    TITLE "28:cjc135_2537"
    INDEX 01 07:27:53
  TRACK 369 AUDIO
    TITLE "0:"
    INDEX 01 07:30:57
  TRACK 370 AUDIO
    TITLE "27:cjc135_2538"
    INDEX 01 07:31:55
  TRACK 371 AUDIO
    TITLE "0:"
    INDEX 01 07:33:52
  TRACK 372 AUDIO
    TITLE "28:cjc135_2539"
    INDEX 01 07:34:02
  TRACK 373 AUDIO
    TITLE "0:"
    INDEX 01 07:36:70
  TRACK 374 AUDIO
    TITLE "27:cjc135_2540"
    INDEX 01 07:37:69
  TRACK 375 AUDIO
    TITLE "0:"
    INDEX 01 07:38:70
  TRACK 376 AUDIO
    TITLE "28:cjc135_2541"
    INDEX 01 07:39:19
  TRACK 377 AUDIO
    TITLE "0:"
    INDEX 01 07:41:26
  TRACK 378 AUDIO
    TITLE "27:cjc135_2542"
    INDEX 01 07:42:25
  TRACK 379 AUDIO
    TITLE "0:"
    INDEX 01 07:43:50
  TRACK 380 AUDIO
    TITLE "28:cjc135_2543"
    INDEX 01 07:43:74
  TRACK 381 AUDIO
    TITLE "0:"
    INDEX 01 07:45:65
  TRACK 382 AUDIO
    TITLE "27:cjc135_2544"
    INDEX 01 07:46:64
  TRACK 383 AUDIO
    TITLE "0:"
    INDEX 01 07:48:18
  TRACK 384 AUDIO
    TITLE "28:cjc135_2545"
    INDEX 01 07:48:45
  TRACK 385 AUDIO
    TITLE "0:"
    INDEX 01 07:50:21
  TRACK 386 AUDIO
    TITLE "27:cjc135_2546"
    INDEX 01 07:51:20
  TRACK 387 AUDIO
    TITLE "0:"
    INDEX 01 07:53:09
  TRACK 388 AUDIO
    TITLE "28:cjc135_2547"
    INDEX 01 07:53:35
  TRACK 389 AUDIO
    TITLE "0:"
    INDEX 01 07:56:17
  TRACK 390 AUDIO
    TITLE "27:cjc135_2548"
    INDEX 01 07:57:17
  TRACK 391 AUDIO
    TITLE "0:"
    INDEX 01 07:58:32
  TRACK 392 AUDIO
    TITLE "28:cjc135_2549"
    INDEX 01 07:58:57
  TRACK 393 AUDIO
    TITLE "0:"
    INDEX 01 08:01:03
  TRACK 394 AUDIO
    TITLE "27:cjc135_2550"
    INDEX 01 08:02:02
  TRACK 395 AUDIO
    TITLE "0:"
    INDEX 01 08:03:08
  TRACK 396 AUDIO
    TITLE "28:cjc135_2551"
    INDEX 01 08:03:33
  TRACK 397 AUDIO
    TITLE "0:"
    INDEX 01 08:05:03
  TRACK 398 AUDIO
    TITLE "27:cjc135_2552"
    INDEX 01 08:06:02
  TRACK 399 AUDIO
    TITLE "0:"
    INDEX 01 08:07:43
  TRACK 400 AUDIO
    TITLE "28:cjc135_2553"
    INDEX 01 08:07:68
  TRACK 401 AUDIO
    TITLE "0:"
    INDEX 01 08:09:63
